# xmcd CD database file
#
# Track frame offsets:
#	150
#	14038
#	30590
#	43500
#	57667
#	70391
#	84360
#	103336
#	114221
#	133200
#	148411
#	161831
#	179378
#	191197
#	207997
#
# Disc length: 2965 seconds
#
# Revision: 1
# Processed by: cddbd v1.5.2PL0 Copyright (c) Steve Scherf et al.
# Submitted via: CDex 1.51
#
DISCID=ea0b930f
DTITLE=Mark Chesnutt - The Ultimate Collection [CD 1)
DYEAR=2011
DGENRE=Country
TTITLE0=Brother Jukebox
TTITLE1=Too Cold At Home
TTITLE2=Blame It On Texas
TTITLE3=Broken Promise Land
TTITLE4=Your Love Is A Miracle
TTITLE5=Bubba Shot The Jukebox
TTITLE6=I'll Think Of Something
TTITLE7=Old Flames Have New Names
TTITLE8=Almost Goodbye
TTITLE9=I Just Wanted You To Know
TTITLE10=It Sure Is Monday
TTITLE11=Ol' Country
TTITLE12=Goin' Through The Big D
TTITLE13=She Dreams
TTITLE14=Woman (Sensuous Woman)
EXTD=YEAR: 2011
EXTT0=
EXTT1=
EXTT2=
EXTT3=
EXTT4=
EXTT5=
EXTT6=
EXTT7=
EXTT8=
EXTT9=
EXTT10=
EXTT11=
EXTT12=
EXTT13=
EXTT14=
PLAYORDER=
